<svg id="Layer_2" data-name="Layer 2" xmlns="http://www.w3.org/2000/svg" viewBox="0 0 430.95 272.84"><defs><style>.cls-1{fill:#444;}</style></defs><title>logo-2-darkgray</title><path class="cls-1" d="M457.77,91.37A50.91,50.91,0,0,0,453,88.84c-6.37-2.59-12.85-4.92-19.13-7.7a13.91,13.91,0,0,1-4.94-4.35c-2.11-2.75-3.26-6.43-5.78-8.62-9.33-8.1-21.37-10.13-32.74-10-10,.14-20.45-1.58-30.31,2.79-5.16,2.29-10.87,3.33-16.34,4.93l0.18,0.93,18.11,4.29,0.61,1.67c-3.55,2.65-7.05,5.36-10.67,7.91-2.92,2.06-6.21,3.83-2.43,8.11C338.78,93.4,328.65,98.4,318,102c-9.56,3.21-19.58,5.22-29.53,7-7,1.28-14.35,2.38-21.38,1.77-14.47-1.24-28.78-4.42-43.25-5.42-14.67-1-29.39-5.61-44.25.1-4.59,1.76-9.76.48-13.6-3.78-11.32-12.58-10.88-27-5.31-41.32,3.24-8.35,3.75-16,.32-23.82a102.12,102.12,0,0,0-9.56-16.26C145.61,11.74,136.84,9,126.95,9.34c-1.64.06-4.18,1.19-4.57,2.39s1,3.39,2.1,4.78c2,2.51,4.93,4.41,6.32,7.16a99.41,99.41,0,0,1,7.14,17.49c1.27,4.47,2.18,9.62,1.24,14-4.4,20.63-2.46,40.24,7.29,59,1.38,2.67,2.39,5.53,3.77,8.79-6.67,2.78-8.81,8.39-10.52,14.45-0.51,1.8-2.18,3.32-3.48,4.83-4.07,4.69-9,8.83-12.14,14.07a120.61,120.61,0,0,0-10.63,22.84c-5.31,15.55-16.68,25.24-30,33.39-2.1,1.29-4.39,3.17-6.6,3.18-5.69,0-9,3.4-12.6,6.92-7.25,7-14.69,13.88-22.26,20.57-4.7,4.16-10.42,7.37-14.37,12.11-1.7,2-.44,6.93.32,10.34,0.16,0.69,4.9,1.58,6.19.6,8.85-6.66,16.95-14.35,26-20.64,14.36-9.95,28-21.42,46-24.86,4.43-.85,8.67-2.94,12.85-4.78,7.06-3.11,14-6.48,21-9.75a13.8,13.8,0,0,1-2.54,7.91c-5.45,7.12-11,14.15-16.8,21-2.44,2.89-5.4,5.77-3.25,9.55,4.3,7.55,9,14.89,14,22a72.86,72.86,0,0,0,9.81,11c2.09,2,4.92,4.34,7.49,4.42,8.24,0.24,16.5-.5,24.91-0.88-1.49-8.72-2.92-10.38-12.43-11-11-.72-17.58-6.78-22.19-16a8.64,8.64,0,0,1,.37-9.11c5.15-8.6,11-16.34,19.5-22.17,13.36-9.17,25.26-19.89,31.95-35.26,4.19-9.63,4.13-9,13.79-6.21,5.47,1.59,12.4,6.64,17-2.28,0.29-.57,2.1-0.7,3.1-0.5a75.09,75.09,0,0,1,8.87,2.27c16.85,5.61,33.53,11.79,50.55,16.85,16.35,4.86,32.53,4.12,47.63-5,1.15-.7,2.58-0.93,4.77-1.69-1.73,5.81-2.11,10.89,3.46,13.08,6,2.36,7.71,6.76,7.94,12.46,0.14,3.39,1.91,4.79,5.26,4.09,4.32-.9,7.79.73,11,3.51,5.17,4.55,10.66,8.77,15.49,13.65,3.52,3.55,6.19,7.94,9.24,12,0.67,0.88,1.24,2.42,2,2.54,7.65,1.17,11.21,7.12,15.45,12.49,1.68,2.13,4.17,4.35,6.67,5,4.43,1.07,9.15,1,13.75,1.3,7,0.51,6.24-6.33,9.08-9.76a5.15,5.15,0,0,0-.32-1.39c-1.68-.46-3.88-1.75-5.85-1.47-8.08,1.16-13.84-2.77-18.4-8.45-7.25-9-13.93-18.52-21.17-28.23,8.42,0,16.43-.38,24.39.14,5,0.33,7.85,4.12,7.79,9.05S422,239.61,427,243.49c7.08,5.46,10.36,6.86,17.26,1.63,0.84-.64,2.31-0.46,5.17-0.94-2.7-3.18-4.2-6.31-6.67-7.6-6.18-3.24-8.49-8-8.88-14.74-0.8-13.85-2.65-15.29-16.67-17.51-11.12-1.76-22.19-3.89-33.24-6.06-5.09-1-7-4.23-5.28-9.32,2.26-6.69,4.25-13.49,6.81-20.06,2.67-6.88,3.48-13.69.82-20.66-2-5.1-1-9.62,2.36-14.08l12.65,7.48c0-2.21-.4-3.86.07-5.2,1.64-4.61,2.62-8.64-4.3-9.23-0.43,0-1.07-1.21-1.08-1.87-0.05-2.83,6-8,8.76-7a94.24,94.24,0,0,1,14.79,6.53c4.34,2.47,8.56,3.29,13.07,1.38,1.36-.58,3.16-2.39,3.1-3.54-0.13-2.27-.9-5.92-2.33-6.44-6.72-2.46-9.29-7.71-11.66-14.77,4.4,0.63,8.52.29,11.73,1.84C445.57,109.12,453.66,104,457.77,91.37ZM186,159.11a17.13,17.13,0,0,1-12.57,5.33,27.56,27.56,0,0,1-3.48-.24V149.94a5,5,0,0,0,3.2,1.28,4.67,4.67,0,0,0,3.47-1.49,4.88,4.88,0,0,0,1.45-3.53,4.64,4.64,0,0,0-1.51-3.48,5,5,0,0,0-3.59-1.44c-3.36,0-5,2.3-5,6.89v28.1H155V147.69c0-5.28,1.35-9.59,4.14-12.91a17.05,17.05,0,0,1,6.11-4.57A18.78,18.78,0,0,1,186,133.7a17.06,17.06,0,0,1,5.35,12.74A17.33,17.33,0,0,1,186,159.11Zm46-12c0,5.4-1.54,9.72-4.79,12.95s-7.54,4.85-12.95,4.85-9.31-1.57-12.17-4.71S198,152.53,198,146.65V116.27h14v30.34c0,2.89,1,4.33,3.05,4.33s2.95-1.44,2.95-4.33V116.27h14V147.1Zm38.78,12a16.85,16.85,0,0,1-12.44,5.33,25.64,25.64,0,0,1-3.35-.24V149.94a4.65,4.65,0,0,0,3.07,1.28,4.53,4.53,0,0,0,3.41-1.49,4.85,4.85,0,0,0,1.41-3.53,4.65,4.65,0,0,0-1.52-3.48,4.72,4.72,0,0,0-3.47-1.44c-3.36,0-4.9,2.3-4.9,6.89v28.1H240V147.69c0-5.28,1.22-9.59,4-12.91a16.81,16.81,0,0,1,6-4.57,18.7,18.7,0,0,1,20.72,3.5,17.05,17.05,0,0,1,5.34,12.74A17.34,17.34,0,0,1,270.78,159.11ZM295,163.27H282v-47h13v47Zm22,0H304v-35h13v35Zm-2-38.81a7.25,7.25,0,0,1-9.4,0,6.08,6.08,0,0,1,.1-8.81,6.63,6.63,0,0,1,9.2,0A6.08,6.08,0,0,1,315,124.46Zm29,5a5.15,5.15,0,0,0-.68,0,4.84,4.84,0,0,0-3.9,1.63,7.1,7.1,0,0,0-1.42,4.64v0.6h6v14h-6v13H325V134.4a19,19,0,0,1,1.74-8.45,17.76,17.76,0,0,1,6.6-7.29,17,17,0,0,1,9.24-2.82l1.42,0v13.57Zm24,34.75-1.49,0a17.88,17.88,0,0,1-8.37-2,16.63,16.63,0,0,1-6.23-5.54c-2-3-2.92-6.92-2.92-11.84V116.27h13v13h6v14h-6.09c0,2,.42,4.68,1.29,5.72s2.79,1.6,4.79,1.6v13.6Z" transform="translate(-26.82 -9.31)"/></svg>