<svg id="Layer_3" data-name="Layer 3" xmlns="http://www.w3.org/2000/svg" viewBox="0 0 455.19 137.39"><title>logo-3-black</title><path d="M197.57,180.1c-6.53,5-14.55,7.27-25.16,7.27-15.37,0-25-5-29.65-14-2.58-5.25-3.67-11-3.67-19.53V95.39c0-2.29.27-2.69,2.86-2.69h16.73c2.58,0,2.86.4,2.86,2.69v57.24c0,13.33,3.26,17.24,12.24,17.24,9.25,0,13.19-4.85,13.19-17V95.39c0-2.29.54-2.69,2.86-2.69H206c2.58,0,2.86.4,2.86,2.69V153.3C208.86,166.5,205.19,174.31,197.57,180.1Z" transform="translate(-29.25 -84.89)"/><path d="M258.1,187.37a24.41,24.41,0,0,1-12.11-3v24.11c0,1.75-.14,2-1.63,2.29l-17.27,2.56c-1.63.27-2-.27-2-2.15V137.68c0-5.79-1.36-9.83-2.72-13.87-0.54-1.48-.27-1.89,1-2.29l14-4.85a5.39,5.39,0,0,1,1.9-.4c1.36,0,2.72,2.83,3.81,6.33,5.3-4.58,10.2-6.33,16.59-6.33,17.14,0,25.57,13.2,25.57,34.88C285.17,175.12,276.6,187.37,258.1,187.37Zm-2.86-55.76c-3,0-5.58.94-9.25,4v35.82a18.25,18.25,0,0,0,8.16,2c7.48,0,10.61-4.85,10.61-21.82C264.77,137.14,261.23,131.62,255.24,131.62Z" transform="translate(-29.25 -84.89)"/><path d="M332.64,183.87c-3.81,2.29-9.93,3.5-14.55,3.5-5.71,0-11-1.75-14.15-5.12-3.67-3.91-4.35-8.08-4.62-16.43l-0.14-5.39V93.1c0-1.75.54-2.42,2-2.69l16.32-2.56c2.58-.4,3-0.4,3,1.89v74.61c0,3.64.68,5.12,2.72,5.12a16.12,16.12,0,0,0,5.3-1.08c0.82-.27,1.77-0.27,2,0.67l3,12.26C333.86,182.53,334,183.07,332.64,183.87Z" transform="translate(-29.25 -84.89)"/><path d="M364.2,185.09H347.6c-1.9,0-2.31-.13-2.31-2V134.45h-8.71c-1.77,0-2.18-.4-2.18-2.15V120.71c0-1.89.41-2.15,2.18-2.15H364.2c1.9,0,2.18.27,2.18,2.15v62.35C366.37,185.09,366.24,185.09,364.2,185.09Zm-9.11-74.74A12.73,12.73,0,1,1,368,97.55,12.85,12.85,0,0,1,355.08,110.34Z" transform="translate(-29.25 -84.89)"/><path d="M427.31,105.36c-0.41,1.48-1.22,1.75-2.86,1.08C421.6,105.22,419,104,415.2,104c-4.9,0-6.26,2.29-6.26,9v5.52h15.64c2.31,0,2.31.4,1.9,2.69L424.32,132c-0.27,1.21-1,1.62-2.45,1.62H408.95v49.43c0,1.89-.14,2-2,2H390.31c-1.63,0-2.18.13-2.18-2V133.64h-8.57c-2,0-2.31,0-2.31-2.42V120.58c0-1.48.41-2,2.45-2h8.43v-5.39c0-10,2.31-16.16,7.62-20.47,4.08-3.5,9.38-5.12,16.32-5.12,5.44,0,12.92,1.48,17.41,3.91,1.36,0.81,1.36,1.21,1,2.69Z" transform="translate(-29.25 -84.89)"/><path d="M482.4,183.6a51.58,51.58,0,0,1-18,3.77c-9.11,0-15.1-3.23-18.09-8.89-1.9-3.64-2.45-7.27-2.45-13.2V133.64h-9.11c-2.18,0-2.31,0-2.31-2.29V121c0-2.29.14-2.42,2.45-2.42h9V101.32c0-1.75.14-2.15,2-2.29l16.32-1.62c2.18-.27,2.58-0.13,2.58,1.89v19.26h15.64c2.58,0,2.58.54,2.18,2.29l-2.18,10.91c-0.27,1.62-.82,1.89-2.31,1.89H464.85v30c0,5,1.22,6.33,4.22,6.33,2.45,0,5-.67,9.79-2.69,1.36-.54,2-0.27,2.45,1.21L484.16,180C484.71,182,484.57,182.66,482.4,183.6Z" transform="translate(-29.25 -84.89)"/><path d="M81.53,184.21c13,5.44,21.88,3.37,28.11-8.21l4.06,5.62c10.12-6.73,10.75-21.82-.1-27.4S96.53,140.52,92,130c-1-2.29-3.25-4-4.93-6l-2.22,1.18c1.26,4.18,2.3,8.44,3.81,12.52,3.1,8.34,2.16,15.56-4.7,21.81C76,166.71,73.12,176,73.65,186.57c0.29,5.7.19,11.44,0,17.15-0.22,7.08-1.31,14.28-8.86,17.14s-15.57,1.46-20.59-4.53c-5.15-6.14-10-13.61-11.86-21.26-6.2-25.2-3.64-49.65,12.41-71,18.23-24.25,47.93-24.54,66-.11,10.06,13.63,18.53,28.23,16.24,43-4.38,28.37-45.52,26.56-45.45,19.73Q81.53,185.5,81.53,184.21Zm-5.89-46.12c-2.48,4.44-5,6.93-4.78,9.18,0.15,1.75,3.73,4.51,5.65,4.41s5.08-3.34,5-5.07C81.41,144.34,78.65,142.19,75.63,138.09Z" transform="translate(-29.25 -84.89)"/><path d="M119.36,158.78l-8.65,8.8-7.73-7.8c2.45-1.81,4.73-4.64,7.42-5.11C112.57,154.3,115.24,156.76,119.36,158.78Z" transform="translate(-29.25 -84.89)"/></svg>