<svg id="Layer_1" data-name="Layer 1" xmlns="http://www.w3.org/2000/svg" viewBox="0 0 475.78 206.32"><defs><style>.cls-1{fill:#c9eccc;}</style></defs><title>logo-1-green</title><path class="cls-1" d="M180.51,31.8a12.62,12.62,0,0,1,3.3-5.58,11,11,0,0,1,5-2.88,9.24,9.24,0,0,1,5.5.34,10,10,0,0,1,4.82,4.06,11.76,11.76,0,0,1,1.27,2A5,5,0,0,1,201,32q0,1.86-.17,6.26t-0.25,9q-0.09,4.57-.25,8.12T200.14,59q-0.34,9.14-1.18,18.19t-2.37,18.19a121.17,121.17,0,0,1-3.22,13.12,38.91,38.91,0,0,1-5.08,10.66,31.45,31.45,0,0,1-8.12,8A40.62,40.62,0,0,1,168,132.66a34.62,34.62,0,0,1-6,1.18,56.19,56.19,0,0,1-6,.34A50.12,50.12,0,0,1,138.71,131a28.69,28.69,0,0,1-15.06-12.86,63.66,63.66,0,0,1-7.11-20.05,119,119,0,0,1-1.95-22.42q0.08-11.34.08-20,0-3.55.08-7.19T115,41.28q0-2.54.17-5.33a20.6,20.6,0,0,1,1-5.33,11.59,11.59,0,0,1,2.62-4.4,9.37,9.37,0,0,1,5-2.54,8.19,8.19,0,0,1,4,.34A12.84,12.84,0,0,1,131.6,26a13.07,13.07,0,0,1,3,3A7,7,0,0,1,136,32.82V40c0,0.85-.2,1.72-0.25,2.62s-0.17,2.09-.17,3.55c-0.23,7.45-.38,14.87-0.38,22.25a180.22,180.22,0,0,0,1.33,22.08c0.34,3,.84,6.21,1.51,9.48a18.51,18.51,0,0,0,4.06,8.46,14.14,14.14,0,0,0,7,4.48,22.07,22.07,0,0,0,8.8.76,24.53,24.53,0,0,0,8.46-2.54,15.68,15.68,0,0,0,6.18-5.42,26.91,26.91,0,0,0,3.38-8,72.76,72.76,0,0,0,1.78-9.48q0.59-4.91.85-9.73T179,69.71q0.34-4.74.51-8.12t0.34-8.12q0.17-3.55.17-7.11t0.17-7.11Z" transform="translate(-28 -12.76)"/><path class="cls-1" d="M324.68,118.28a14,14,0,0,1,3.13,4.32,13,13,0,0,1,1.35,5.25,9.32,9.32,0,0,1-1.18,4.91,8,8,0,0,1-4.48,3.47,11.49,11.49,0,0,1-5.58.34,20.43,20.43,0,0,1-6-2,23.47,23.47,0,0,1-5.25-3.64,12.87,12.87,0,0,1-3.3-4.65,8.58,8.58,0,0,1-.85-1.95,19.89,19.89,0,0,1-.51-1.95V28.42a9,9,0,0,1,3.3-6.6A12.57,12.57,0,0,1,312,18.6a8.93,8.93,0,0,1,3.72.51,13.64,13.64,0,0,1,3.68,1.95,13.26,13.26,0,0,1,3.15,3A7,7,0,0,1,324,27.57V39.25c0,4.85-.31,10.15-0.25,15.91s-0.08,11.71-.08,17.85-0.11,12-.17,17.68-0.13,10.8-.13,15.48-0.08,8.43-.19,11.25Z" transform="translate(-28 -12.76)"/><path class="cls-1" d="M342.79,27.74q0.67-6.26,4.32-9.22a11.16,11.16,0,0,1,15.23.25q3.47,3,3.64,8.63,0.34,5.76-3,8.88a12.52,12.52,0,0,1-7.53,3.55,11.25,11.25,0,0,1-8-2.28q-3.72-2.71-4.57-8.63ZM365,124a9.81,9.81,0,0,1-2.3,6,12.25,12.25,0,0,1-4.62,3.81,8.77,8.77,0,0,1-5.65.51,9.49,9.49,0,0,1-5.41-3.72,10.55,10.55,0,0,1-1.94-3.81,22.11,22.11,0,0,1-.76-4.4,40.4,40.4,0,0,1-.08-4.57q0.08-2.28.09-4.15-0.17-10-.08-19.8t-0.08-19.8a67.5,67.5,0,0,0-.51-8.21,22.35,22.35,0,0,1,.51-8.21,12.1,12.1,0,0,1,3-5.25,11.42,11.42,0,0,1,4.74-3,9.82,9.82,0,0,1,5.42-.17c1.86,0.45,3.07,1.64,4.43,3.55A10.17,10.17,0,0,1,364,59.47V79c0,3.84.39,7.62,0.5,11.34,0.11,5.42.5,10.83,0.5,16.25V124Z" transform="translate(-28 -12.76)"/><path class="cls-1" d="M406.7,130.8a10.94,10.94,0,0,1-4.87,3.72,8.6,8.6,0,0,1-5.82,0,9.28,9.28,0,0,1-5-4.57,13.55,13.55,0,0,1-1.41-2.88,9.67,9.67,0,0,1-.56-3V79.52a10.26,10.26,0,0,1-5.76-1.78,11,11,0,0,1-3.85-4.4,9.94,9.94,0,0,1-.91-5.58,9.6,9.6,0,0,1,2.72-5.5,8.21,8.21,0,0,1,3.64-2.45A19.39,19.39,0,0,1,389,59q-0.17-5.24-.25-10.32a55.64,55.64,0,0,1,.76-10.15A31.16,31.16,0,0,1,394.24,25a26.36,26.36,0,0,1,9.22-8.63,29.55,29.55,0,0,1,12.27-3.55,34.57,34.57,0,0,1,14,2,35.83,35.83,0,0,1,5.84,2.54,19.58,19.58,0,0,1,5,3.89,10.2,10.2,0,0,1,2.2,4,9.71,9.71,0,0,1,.25,4.57,11.51,11.51,0,0,1-1.69,4.23,7.94,7.94,0,0,1-3.64,3,10.36,10.36,0,0,1-6.35.68,26,26,0,0,1-6.18-2.2q-1.86-.67-3.55-1.35a18.71,18.71,0,0,0-3.55-1,5,5,0,0,0-3.38.51,8.48,8.48,0,0,0-2.62,2.28,11.39,11.39,0,0,0-2.28,6.68q-0.17,3.89-.08,7.87t0.08,7.87l5.42-.34q2.88-.17,5.67-0.17T426.05,58a13.83,13.83,0,0,1,3.72.68,10,10,0,0,1,4.4,3.13,10.78,10.78,0,0,1,2.2,4.57,9,9,0,0,1-.42,5,9.91,9.91,0,0,1-3.3,4.4,13.13,13.13,0,0,1-5.08,2.37,40.46,40.46,0,0,1-6.09.93,66,66,0,0,1-6.67.17c-2-.06-3.82-0.08-5.82-0.08v45.18A10,10,0,0,1,406.7,130.8Z" transform="translate(-28 -12.76)"/><path class="cls-1" d="M452.76,72.42a13.75,13.75,0,0,1-5.65-2.88,10.34,10.34,0,0,1-3.29-4.74,8.6,8.6,0,0,1,0-5.58A10.81,10.81,0,0,1,448,54a9.93,9.93,0,0,1,6.12-2h6.6c0-1-.06-2.54-0.17-5.19s-0.14-5.57-.08-8.73,0.25-6.18.59-9.06,1-4.88,1.86-6q3.38-4.74,8.38-4.49a10.38,10.38,0,0,1,8.21,4.82,11.76,11.76,0,0,1,1.27,2,5,5,0,0,1,.59,2.2c0.11,4.06.14,8.15,0.08,12.21S481.39,48,481.39,52h13.37A7.44,7.44,0,0,1,500,54a11.43,11.43,0,0,1,3.13,4.72,11.71,11.71,0,0,1,.51,5.58A7.42,7.42,0,0,1,501,69,14.57,14.57,0,0,1,492,72.42q-5.16.17-10.58,0.17,0,9.31-.08,18.61t0.08,18.62q0,4.06.42,8.29a22.94,22.94,0,0,1-.59,8.12,9.66,9.66,0,0,1-2.88,4.82,9.11,9.11,0,0,1-4.57,2.2,12,12,0,0,1-5.25-.34,13.3,13.3,0,0,1-5.08-2.79,8,8,0,0,1-1.78-4.06A40.46,40.46,0,0,1,461,120c-0.11-2.48-1-5.13,0-8v-8.8c0-3.61-.44-7.36-0.5-11.25s-0.5-7.59-.5-11.08V72.58Z" transform="translate(-28 -12.76)"/><path class="cls-1" d="M96.74,79.1a41.41,41.41,0,0,0-8-16.08,33.56,33.56,0,0,0-14-10.15q-8.38-3.3-19.21-.42A30.64,30.64,0,0,0,51.38,54q-1.86.85-3.73,1.86a9.62,9.62,0,0,0-4.24-4.23,10,10,0,0,0-5.68-1A10.86,10.86,0,0,0,32.13,53a12,12,0,0,0-3.86,6.18l-0.27,1V163.29a9.86,9.86,0,0,0,2.22,6.35,12.06,12.06,0,0,0,5.09,3.72,9.74,9.74,0,0,0,6.09.25,9.46,9.46,0,0,0,5.41-4.06,10.75,10.75,0,0,0,1.27-4.48q0.42-3.3.67-7.53c0.17-2.82.25-5.75,0.25-8.8v-8.46c0-2.6,0-4.74-.08-6.43s-0.08-2.6-.08-2.71a77.09,77.09,0,0,0,14-.25,44.53,44.53,0,0,0,13.45-3.64,34.07,34.07,0,0,0,15.06-12.44,41.64,41.64,0,0,0,6.52-17.26A47.48,47.48,0,0,0,96.74,79.1ZM62.18,114.18A23.34,23.34,0,1,1,85.51,90.84,23.34,23.34,0,0,1,62.18,114.18Z" transform="translate(-28 -12.76)"/><path class="cls-1" d="M285.09,79.1a41.41,41.41,0,0,0-8-16.08,33.55,33.55,0,0,0-14-10.15q-8.38-3.3-19.21-.42A30.56,30.56,0,0,0,239.74,54c-1.24.57-2.48,1.18-3.72,1.86a9.58,9.58,0,0,0-4.22-4.23,9.84,9.84,0,0,0-5.64-1A10.61,10.61,0,0,0,220.64,53a11.82,11.82,0,0,0-3.7,6.18l0.06,1V163.29a9.64,9.64,0,0,0,1.88,6.35,11.15,11.15,0,0,0,4.76,3.72,9.71,9.71,0,0,0,6.08.25,9.42,9.42,0,0,0,5.39-4.06,10.88,10.88,0,0,0,1.22-4.48c0.28-2.2.42-4.71,0.59-7.53s0.07-5.75.07-8.8v-8.46c0-2.6.15-4.74,0.1-6.43a17.21,17.21,0,0,1,.1-2.71,77.08,77.08,0,0,0,14-.25,44.53,44.53,0,0,0,13.45-3.64,34.07,34.07,0,0,0,15.06-12.44,41.63,41.63,0,0,0,6.52-17.26A47.48,47.48,0,0,0,285.09,79.1ZM246,115.71A18.72,18.72,0,1,1,264.7,97,18.72,18.72,0,0,1,246,115.71Z" transform="translate(-28 -12.76)"/><path class="cls-1" d="M221,186.87a6.38,6.38,0,0,0-9,.84c-10.68,12.89-21.37,19.13-31.78,18.57-10.67-.58-19.23-8.17-23.84-13.3l29.7-29.7a7,7,0,0,0,1.66-7.95,7.32,7.32,0,0,0-7.07-4.33H111.29a7.24,7.24,0,0,0-5.2,12.69L138,193c-9.11,9.33-18.21,13.76-27.1,13.27-16.13-.88-27.47-17.82-27.57-18a6.38,6.38,0,1,0-10.69,7c0.6,0.91,14.87,22.42,37.47,23.72q1.08,0.06,2.16.06c12,0,23.75-5.8,34.95-17.29,6.12,6.73,17.41,16.39,32.31,17.24,0.72,0,1.43.06,2.15,0.06,13.95,0,27.48-7.8,40.25-23.22A6.38,6.38,0,0,0,221,186.87Z" transform="translate(-28 -12.76)"/></svg>